<svg width="52" height="52" viewBox="0 0 52 52" fill="none" xmlns="http://www.w3.org/2000/svg">
<rect width="52" height="52" rx="8" fill="url(#paint0_linear_10_3310)"/>
<path d="M20.4584 20.1666C20.4584 19.9346 20.5506 19.712 20.7147 19.5479C20.8787 19.3838 21.1013 19.2916 21.3334 19.2916H30.6667C30.8988 19.2916 31.1213 19.3838 31.2854 19.5479C31.4495 19.712 31.5417 19.9346 31.5417 20.1666C31.5417 20.3987 31.4495 20.6213 31.2854 20.7853C31.1213 20.9494 30.8988 21.0416 30.6667 21.0416H21.3334C21.1013 21.0416 20.8787 20.9494 20.7147 20.7853C20.5506 20.6213 20.4584 20.3987 20.4584 20.1666ZM21.3334 23.375C21.1013 23.375 20.8787 23.4671 20.7147 23.6312C20.5506 23.7953 20.4584 24.0179 20.4584 24.25C20.4584 24.482 20.5506 24.7046 20.7147 24.8687C20.8787 25.0328 21.1013 25.125 21.3334 25.125H27.1667C27.3988 25.125 27.6213 25.0328 27.7854 24.8687C27.9495 24.7046 28.0417 24.482 28.0417 24.25C28.0417 24.0179 27.9495 23.7953 27.7854 23.6312C27.6213 23.4671 27.3988 23.375 27.1667 23.375H21.3334Z" fill="#D3D3D3"/>
<path fill-rule="evenodd" clip-rule="evenodd" d="M23.6026 13.4584C22.0077 13.4584 20.7209 13.4584 19.7094 13.5949C18.6594 13.7349 17.7751 14.0382 17.0727 14.7394C16.3704 15.4417 16.0694 16.326 15.9282 17.376C15.7917 18.3875 15.7917 19.6744 15.7917 21.2692V30.7309C15.7917 32.3257 15.7917 33.6125 15.9282 34.624C16.0682 35.674 16.3716 36.5584 17.0727 37.2607C17.7751 37.963 18.6594 38.264 19.7094 38.4064C20.7209 38.5417 22.0077 38.5417 23.6026 38.5417H28.3976C29.9924 38.5417 31.2792 38.5417 32.2907 38.4064C33.3407 38.264 34.2251 37.963 34.9274 37.2607C35.6297 36.5584 35.9307 35.674 36.0731 34.624C36.2084 33.6125 36.2084 32.3257 36.2084 30.7309V21.2692C36.2084 19.6744 36.2084 18.3875 36.0731 17.376C35.9307 16.326 35.6297 15.4417 34.9274 14.7394C34.2251 14.037 33.3407 13.736 32.2907 13.5949C31.2792 13.4584 29.9924 13.4584 28.3976 13.4584H23.6026ZM18.3117 15.9772C18.6349 15.654 19.0876 15.444 19.9451 15.3285C20.8247 15.2107 21.9937 15.2084 23.6679 15.2084H28.3346C30.0087 15.2084 31.1766 15.2107 32.0586 15.3285C32.9149 15.444 33.3676 15.6552 33.6907 15.9772C34.0139 16.3004 34.2239 16.753 34.3394 17.6105C34.4572 18.4902 34.4596 19.6592 34.4596 21.3334V29.7917H21.0791C20.1247 29.7917 19.4737 29.7917 18.9149 29.941C18.4235 30.0726 17.9588 30.289 17.5417 30.5804V21.3334C17.5417 19.6592 17.5441 18.4902 17.6619 17.6094C17.7774 16.753 17.9897 16.3004 18.3117 15.9772ZM17.5732 33.2905C17.5907 33.7035 17.6187 34.0664 17.6619 34.3907C17.7774 35.247 17.9886 35.6997 18.3106 36.0229C18.6337 36.346 19.0864 36.556 19.9439 36.6715C20.8236 36.7894 21.9926 36.7917 23.6667 36.7917H28.3334C30.0076 36.7917 31.1754 36.7894 32.0574 36.6715C32.9137 36.556 33.3664 36.3449 33.6896 36.0229C34.0127 35.6997 34.2227 35.247 34.3382 34.3895C34.4351 33.672 34.4537 32.762 34.4572 31.5417H21.2144C20.0734 31.5417 19.6744 31.5487 19.3676 31.6315C18.9564 31.7418 18.5782 31.9505 18.2656 32.2395C17.953 32.5285 17.7154 32.8892 17.5732 33.2905Z" fill="#D3D3D3"/>
<defs>
<linearGradient id="paint0_linear_10_3310" x1="26" y1="0" x2="26" y2="52" gradientUnits="userSpaceOnUse">
<stop stop-color="#171C2F"/>
<stop offset="1" stop-color="#485060"/>
</linearGradient>
</defs>
</svg>
