<svg width="52" height="52" viewBox="0 0 52 52" fill="none" xmlns="http://www.w3.org/2000/svg">
<rect width="52" height="52" rx="8" fill="url(#paint0_linear_10_3336)"/>
<path d="M22.5 24.8333V33M29.5 24.8333V33M28.3334 17.8333C28.3334 17.2145 28.0875 16.621 27.65 16.1834C27.2124 15.7458 26.6189 15.5 26 15.5C25.3812 15.5 24.7877 15.7458 24.3501 16.1834C23.9125 16.621 23.6667 17.2145 23.6667 17.8333M34.47 23.312L36.0859 33.812C36.137 34.1443 36.1157 34.4838 36.0234 34.8071C35.9311 35.1304 35.77 35.43 35.5512 35.6852C35.3324 35.9405 35.061 36.1455 34.7556 36.2861C34.4501 36.4267 34.1179 36.4997 33.7817 36.5H18.2184C17.8819 36.5 17.5495 36.4273 17.2438 36.2868C16.9381 36.1464 16.6664 35.9414 16.4473 35.6861C16.2282 35.4308 16.067 35.1311 15.9745 34.8077C15.8821 34.4842 15.8607 34.1445 15.9119 33.812L17.5277 23.312C17.6125 22.7609 17.8918 22.2583 18.3151 21.8953C18.7384 21.5324 19.2778 21.333 19.8354 21.3333H32.1647C32.7221 21.3333 33.2612 21.5328 33.6842 21.8957C34.1073 22.2586 34.3853 22.7611 34.47 23.312Z" stroke="#D3D3D3" stroke-width="1.5" stroke-linecap="round" stroke-linejoin="round"/>
<defs>
<linearGradient id="paint0_linear_10_3336" x1="26" y1="0" x2="26" y2="52" gradientUnits="userSpaceOnUse">
<stop stop-color="#171C2F"/>
<stop offset="1" stop-color="#485060"/>
</linearGradient>
</defs>
</svg>
