<svg width="52" height="52" viewBox="0 0 52 52" fill="none" xmlns="http://www.w3.org/2000/svg">
<rect width="52" height="52" rx="8" fill="url(#paint0_linear_10_3320)"/>
<path d="M37.375 30.5938H36.2812V19.875C36.2812 19.2368 36.0277 18.6248 35.5765 18.1735C35.1252 17.7223 34.5132 17.4688 33.875 17.4688H18.125C17.4868 17.4688 16.8748 17.7223 16.4235 18.1735C15.9723 18.6248 15.7188 19.2368 15.7188 19.875V30.5938H14.625C14.451 30.5938 14.284 30.6629 14.161 30.786C14.0379 30.909 13.9688 31.076 13.9688 31.25V33C13.9688 33.6382 14.2223 34.2502 14.6735 34.7015C15.1248 35.1527 15.7368 35.4062 16.375 35.4062H35.625C36.2632 35.4062 36.8752 35.1527 37.3265 34.7015C37.7777 34.2502 38.0312 33.6382 38.0312 33V31.25C38.0312 31.076 37.9621 30.909 37.839 30.786C37.716 30.6629 37.549 30.5938 37.375 30.5938ZM17.0312 19.875C17.0312 19.5849 17.1465 19.3067 17.3516 19.1016C17.5567 18.8965 17.8349 18.7812 18.125 18.7812H33.875C34.1651 18.7812 34.4433 18.8965 34.6484 19.1016C34.8535 19.3067 34.9688 19.5849 34.9688 19.875V30.5938H17.0312V19.875ZM36.7188 33C36.7188 33.2901 36.6035 33.5683 36.3984 33.7734C36.1933 33.9785 35.9151 34.0938 35.625 34.0938H16.375C16.0849 34.0938 15.8067 33.9785 15.6016 33.7734C15.3965 33.5683 15.2812 33.2901 15.2812 33V31.9062H36.7188V33ZM28.4062 21.625C28.4062 21.799 28.3371 21.966 28.214 22.089C28.091 22.2121 27.924 22.2812 27.75 22.2812H24.25C24.076 22.2812 23.909 22.2121 23.786 22.089C23.6629 21.966 23.5938 21.799 23.5938 21.625C23.5938 21.451 23.6629 21.284 23.786 21.161C23.909 21.0379 24.076 20.9688 24.25 20.9688H27.75C27.924 20.9688 28.091 21.0379 28.214 21.161C28.3371 21.284 28.4062 21.451 28.4062 21.625Z" fill="#D3D3D3"/>
<defs>
<linearGradient id="paint0_linear_10_3320" x1="26" y1="0" x2="26" y2="52" gradientUnits="userSpaceOnUse">
<stop stop-color="#171C2F"/>
<stop offset="1" stop-color="#485060"/>
</linearGradient>
</defs>
</svg>
