<svg width="52" height="52" viewBox="0 0 52 52" fill="none" xmlns="http://www.w3.org/2000/svg">
<rect width="52" height="52" rx="8" fill="url(#paint0_linear_10_3311)"/>
<path d="M16.754 16C16.0247 16 15.3252 16.2897 14.8095 16.8055C14.2938 17.3212 14.004 18.0207 14.004 18.75V32.25C14.004 33.2446 14.3991 34.1984 15.1024 34.9017C15.8056 35.6049 16.7595 36 17.754 36H22.25C23.2446 36 24.1984 35.6049 24.9017 34.9017C25.6049 34.1984 26 33.2446 26 32.25V22.5H36.5V35.25C36.5 35.4489 36.579 35.6397 36.7197 35.7803C36.8603 35.921 37.0511 36 37.25 36C37.4489 36 37.6397 35.921 37.7804 35.7803C37.921 35.6397 38 35.4489 38 35.25V18.75C38 18.0207 37.7103 17.3212 37.1946 16.8055C36.6788 16.2897 35.9794 16 35.25 16H16.754ZM15.504 22.5H24.5V32.25C24.5 32.8467 24.263 33.419 23.841 33.841C23.4191 34.2629 22.8468 34.5 22.25 34.5H17.754C17.1573 34.5 16.585 34.2629 16.163 33.841C15.7411 33.419 15.504 32.8467 15.504 32.25V22.5ZM15.504 21V18.75C15.504 18.06 16.064 17.5 16.754 17.5H35.25C35.94 17.5 36.5 18.06 36.5 18.75V21H15.504ZM18.25 25C18.0511 25 17.8604 25.079 17.7197 25.2197C17.579 25.3603 17.5 25.5511 17.5 25.75C17.5 25.9489 17.579 26.1397 17.7197 26.2803C17.8604 26.421 18.0511 26.5 18.25 26.5H21.75C21.9489 26.5 22.1397 26.421 22.2804 26.2803C22.421 26.1397 22.5 25.9489 22.5 25.75C22.5 25.5511 22.421 25.3603 22.2804 25.2197C22.1397 25.079 21.9489 25 21.75 25H18.25Z" fill="#D3D3D3"/>
<defs>
<linearGradient id="paint0_linear_10_3311" x1="26" y1="0" x2="26" y2="52" gradientUnits="userSpaceOnUse">
<stop stop-color="#171C2F"/>
<stop offset="1" stop-color="#485060"/>
</linearGradient>
</defs>
</svg>
