<svg width="52" height="52" viewBox="0 0 52 52" fill="none" xmlns="http://www.w3.org/2000/svg">
<rect width="52" height="52" rx="8" fill="url(#paint0_linear_10_3323)"/>
<path d="M19.5 21C19.5 20.606 19.5776 20.2159 19.7284 19.8519C19.8791 19.488 20.1001 19.1573 20.3787 18.8787C20.6573 18.6001 20.988 18.3791 21.3519 18.2284C21.7159 18.0776 22.106 18 22.5 18C22.894 18 23.2841 18.0776 23.6481 18.2284C24.012 18.3791 24.3427 18.6001 24.6213 18.8787C24.8999 19.1573 25.1209 19.488 25.2716 19.8519C25.4224 20.2159 25.5 20.606 25.5 21C25.5 21.7956 25.1839 22.5587 24.6213 23.1213C24.0587 23.6839 23.2956 24 22.5 24C21.7044 24 20.9413 23.6839 20.3787 23.1213C19.8161 22.5587 19.5 21.7956 19.5 21ZM22.5 16C21.1739 16 19.9021 16.5268 18.9645 17.4645C18.0268 18.4021 17.5 19.6739 17.5 21C17.5 22.3261 18.0268 23.5979 18.9645 24.5355C19.9021 25.4732 21.1739 26 22.5 26C23.8261 26 25.0979 25.4732 26.0355 24.5355C26.9732 23.5979 27.5 22.3261 27.5 21C27.5 19.6739 26.9732 18.4021 26.0355 17.4645C25.0979 16.5268 23.8261 16 22.5 16ZM29.5 16H28.5V18H29.5C29.894 18 30.2841 18.0776 30.6481 18.2284C31.012 18.3791 31.3427 18.6001 31.6213 18.8787C31.8999 19.1573 32.1209 19.488 32.2716 19.8519C32.4224 20.2159 32.5 20.606 32.5 21C32.5 21.394 32.4224 21.7841 32.2716 22.1481C32.1209 22.512 31.8999 22.8427 31.6213 23.1213C31.3427 23.3999 31.012 23.6209 30.6481 23.7716C30.2841 23.9224 29.894 24 29.5 24H28.5V26H29.5C30.8261 26 32.0979 25.4732 33.0355 24.5355C33.9732 23.5979 34.5 22.3261 34.5 21C34.5 19.6739 33.9732 18.4021 33.0355 17.4645C32.0979 16.5268 30.8261 16 29.5 16ZM14 33C14 31.6739 14.5268 30.4021 15.4645 29.4645C16.4021 28.5268 17.6739 28 19 28H26C27.3261 28 28.5979 28.5268 29.5355 29.4645C30.4732 30.4021 31 31.6739 31 33V35H29V33C29 32.2044 28.6839 31.4413 28.1213 30.8787C27.5587 30.3161 26.7956 30 26 30H19C18.2044 30 17.4413 30.3161 16.8787 30.8787C16.3161 31.4413 16 32.2044 16 33V35H14V34V33ZM38 33C38 32.3434 37.8707 31.6932 37.6194 31.0866C37.3681 30.48 36.9998 29.9288 36.5355 29.4645C36.0712 29.0002 35.52 28.6319 34.9134 28.3806C34.3068 28.1293 33.6566 28 33 28H32V30H33C33.7956 30 34.5587 30.3161 35.1213 30.8787C35.6839 31.4413 36 32.2044 36 33V35H38V34V33Z" fill="#D3D3D3"/>
<defs>
<linearGradient id="paint0_linear_10_3323" x1="26" y1="0" x2="26" y2="52" gradientUnits="userSpaceOnUse">
<stop stop-color="#171C2F"/>
<stop offset="1" stop-color="#485060"/>
</linearGradient>
</defs>
</svg>
