<svg width="32" height="32" viewBox="0 0 32 32" fill="none" xmlns="http://www.w3.org/2000/svg">
<rect width="32" height="32" rx="4" fill="#0D131F"/>
<g clip-path="url(#clip0_8_9)">
<path d="M12.464 10.707C12.2765 10.5195 12.1712 10.2652 12.1712 10C12.1712 9.73485 12.2765 9.48054 12.464 9.29301L15.222 6.53501C15.3241 6.43281 15.4454 6.35174 15.5789 6.29643C15.7124 6.24112 15.8555 6.21265 16 6.21265C16.1445 6.21265 16.2876 6.24112 16.4211 6.29643C16.5546 6.35174 16.6758 6.43281 16.778 6.53501L19.535 9.29301C19.6305 9.38526 19.7067 9.4956 19.7591 9.61761C19.8115 9.73961 19.8391 9.87083 19.8402 10.0036C19.8414 10.1364 19.8161 10.2681 19.7658 10.391C19.7155 10.5139 19.6413 10.6255 19.5474 10.7194C19.4535 10.8133 19.3418 10.8876 19.2189 10.9378C19.096 10.9881 18.9644 11.0134 18.8316 11.0123C18.6988 11.0111 18.5676 10.9835 18.4456 10.9311C18.3236 10.8787 18.2132 10.8025 18.121 10.707L17 9.58601V15H22.414L21.293 13.879C21.1053 13.6915 20.9999 13.4371 20.9998 13.1719C20.9997 12.9066 21.105 12.6522 21.2925 12.4645C21.48 12.2769 21.7344 12.1714 21.9996 12.1713C22.2649 12.1712 22.5193 12.2765 22.707 12.464L25.465 15.222C25.5672 15.3242 25.6483 15.4454 25.7036 15.5789C25.7589 15.7124 25.7874 15.8555 25.7874 16C25.7874 16.1445 25.7589 16.2876 25.7036 16.4211C25.6483 16.5546 25.5672 16.6759 25.465 16.778L22.707 19.536C22.5193 19.7235 22.2649 19.8288 21.9996 19.8287C21.7344 19.8286 21.48 19.7232 21.2925 19.5355C21.105 19.3479 20.9997 19.0934 20.9998 18.8282C20.9999 18.5629 21.1053 18.3085 21.293 18.121L22.414 17H17V22.414L18.121 21.293C18.3096 21.1109 18.5622 21.0101 18.8244 21.0123C19.0866 21.0146 19.3374 21.1198 19.5228 21.3052C19.7082 21.4906 19.8134 21.7414 19.8157 22.0036C19.8179 22.2658 19.7171 22.5184 19.535 22.707L16.778 25.465C16.6758 25.5672 16.5546 25.6483 16.4211 25.7036C16.2876 25.7589 16.1445 25.7874 16 25.7874C15.8555 25.7874 15.7124 25.7589 15.5789 25.7036C15.4454 25.6483 15.3241 25.5672 15.222 25.465L12.464 22.707C12.3711 22.6141 12.2975 22.5038 12.2473 22.3824C12.1971 22.2611 12.1712 22.131 12.1713 21.9997C12.1713 21.8683 12.1972 21.7383 12.2476 21.6169C12.2979 21.4956 12.3716 21.3854 12.4645 21.2925C12.5574 21.1997 12.6677 21.126 12.7891 21.0758C12.9104 21.0256 13.0405 20.9998 13.1718 20.9998C13.3032 20.9999 13.4332 21.0258 13.5546 21.0761C13.6759 21.1264 13.7861 21.2001 13.879 21.293L14.999 22.414V17H9.58699L10.708 18.121C10.8009 18.2139 10.8746 18.3241 10.9249 18.4454C10.9752 18.5668 11.0011 18.6968 11.0012 18.8282C11.0012 18.9595 10.9754 19.0896 10.9252 19.2109C10.875 19.3323 10.8013 19.4426 10.7085 19.5355C10.6156 19.6284 10.5054 19.7021 10.3841 19.7524C10.2627 19.8028 10.1327 19.8287 10.0013 19.8287C9.86999 19.8288 9.73992 19.8029 9.61855 19.7527C9.49719 19.7025 9.3869 19.6289 9.29399 19.536L6.53599 16.778C6.43379 16.6759 6.35272 16.5546 6.2974 16.4211C6.24209 16.2876 6.21362 16.1445 6.21362 16C6.21362 15.8555 6.24209 15.7124 6.2974 15.5789C6.35272 15.4454 6.43379 15.3242 6.53599 15.222L9.29399 12.464C9.48176 12.2766 9.73628 12.1715 10.0015 12.1718C10.2668 12.1721 10.5211 12.2777 10.7085 12.4655C10.8959 12.6533 11.001 12.9078 11.0007 13.1731C11.0004 13.4383 10.8948 13.6926 10.707 13.88L9.58599 15H15V9.58701L13.879 10.707C13.7861 10.8 13.6758 10.8737 13.5544 10.9241C13.433 10.9744 13.3029 11.0003 13.1715 11.0003C13.0401 11.0003 12.9099 10.9744 12.7885 10.9241C12.6672 10.8737 12.5569 10.8 12.464 10.707Z" fill="white"/>
</g>
<defs>
<clipPath id="clip0_8_9">
<rect width="24" height="24" fill="white" transform="translate(4 4)"/>
</clipPath>
</defs>
</svg>
