<svg width="30" height="31" viewBox="0 0 30 31" fill="none" xmlns="http://www.w3.org/2000/svg">
<g id="icon/sun-moon">
<path id="Vector" d="M15 20.5C16.3261 20.5 17.5979 19.9732 18.5355 19.0355C19.4732 18.0979 20 16.8261 20 15.5C20 14.1739 19.4732 12.9021 18.5355 11.9645C17.5979 11.0268 16.3261 10.5 15 10.5C13.6739 10.5 12.4021 11.0268 11.4645 11.9645C10.5268 12.9021 10 14.1739 10 15.5C10 16.8261 10.5268 18.0979 11.4645 19.0355C12.4021 19.9732 13.6739 20.5 15 20.5Z" stroke="#BCB3B3" stroke-width="2" stroke-linecap="round" stroke-linejoin="round"/>
<path id="Vector_2" d="M14.9999 10.5C14.3368 11.163 13.9644 12.0623 13.9644 13C13.9644 13.9377 14.3368 14.837 14.9999 15.5C15.6629 16.163 16.5622 16.5355 17.4999 16.5355C18.4376 16.5355 19.3368 16.163 19.9999 15.5" stroke="#BCB3B3" stroke-width="2" stroke-linecap="round" stroke-linejoin="round"/>
<path id="Vector_3" d="M15 3V5.5" stroke="#BCB3B3" stroke-width="2" stroke-linecap="round" stroke-linejoin="round"/>
<path id="Vector_4" d="M15 25.5V28" stroke="#BCB3B3" stroke-width="2" stroke-linecap="round" stroke-linejoin="round"/>
<path id="Vector_5" d="M6.1626 6.6626L7.9251 8.4251" stroke="#BCB3B3" stroke-width="2" stroke-linecap="round" stroke-linejoin="round"/>
<path id="Vector_6" d="M22.075 22.575L23.8374 24.3374" stroke="#BCB3B3" stroke-width="2" stroke-linecap="round" stroke-linejoin="round"/>
<path id="Vector_7" d="M2.5 15.5H5" stroke="#BCB3B3" stroke-width="2" stroke-linecap="round" stroke-linejoin="round"/>
<path id="Vector_8" d="M25 15.5H27.5" stroke="#BCB3B3" stroke-width="2" stroke-linecap="round" stroke-linejoin="round"/>
<path id="Vector_9" d="M7.9251 22.575L6.1626 24.3374" stroke="#BCB3B3" stroke-width="2" stroke-linecap="round" stroke-linejoin="round"/>
<path id="Vector_10" d="M23.8374 6.6626L22.075 8.4251" stroke="#BCB3B3" stroke-width="2" stroke-linecap="round" stroke-linejoin="round"/>
</g>
</svg>
