<svg width="17" height="17" viewBox="0 0 17 17" fill="none" xmlns="http://www.w3.org/2000/svg">
<path d="M8.33333 6.66667C9.21739 6.66667 10.0652 6.31548 10.6904 5.69036C11.3155 5.06523 11.6667 4.21739 11.6667 3.33333C11.6667 2.44928 11.3155 1.60143 10.6904 0.976311C10.0652 0.351189 9.21739 0 8.33333 0C7.44928 0 6.60143 0.351189 5.97631 0.976311C5.35119 1.60143 5 2.44928 5 3.33333C5 4.21739 5.35119 5.06523 5.97631 5.69036C6.60143 6.31548 7.44928 6.66667 8.33333 6.66667ZM2.91667 9.16667C3.4692 9.16667 3.9991 8.94717 4.38981 8.55647C4.78051 8.16577 5 7.63587 5 7.08333C5 6.5308 4.78051 6.00089 4.38981 5.61019C3.9991 5.21949 3.4692 5 2.91667 5C2.36413 5 1.83423 5.21949 1.44353 5.61019C1.05283 6.00089 0.833333 6.5308 0.833333 7.08333C0.833333 7.63587 1.05283 8.16577 1.44353 8.55647C1.83423 8.94717 2.36413 9.16667 2.91667 9.16667ZM15.8333 7.08333C15.8333 7.63587 15.6138 8.16577 15.2231 8.55647C14.8324 8.94717 14.3025 9.16667 13.75 9.16667C13.1975 9.16667 12.6676 8.94717 12.2769 8.55647C11.8862 8.16577 11.6667 7.63587 11.6667 7.08333C11.6667 6.5308 11.8862 6.00089 12.2769 5.61019C12.6676 5.21949 13.1975 5 13.75 5C14.3025 5 14.8324 5.21949 15.2231 5.61019C15.6138 6.00089 15.8333 6.5308 15.8333 7.08333ZM8.33333 7.5C9.4384 7.5 10.4982 7.93899 11.2796 8.72039C12.061 9.50179 12.5 10.5616 12.5 11.6667V16.6667H4.16667V11.6667C4.16667 10.5616 4.60565 9.50179 5.38705 8.72039C6.16846 7.93899 7.22826 7.5 8.33333 7.5ZM2.5 11.6667C2.5 11.0892 2.58333 10.5317 2.74 10.005L2.59833 10.0167C1.88407 10.0951 1.22389 10.4344 0.744385 10.9696C0.264885 11.5048 -0.000186466 12.1981 9.84146e-08 12.9167V16.6667H2.5V11.6667ZM16.6667 16.6667V12.9167C16.6668 12.1736 16.3833 11.4586 15.8741 10.9175C15.3649 10.3764 14.6683 10.05 13.9267 10.005C14.0825 10.5317 14.1667 11.0892 14.1667 11.6667V16.6667H16.6667Z" fill="#8A8D97"/>
</svg>
