<svg width="21" height="20" viewBox="0 0 21 20" fill="none" xmlns="http://www.w3.org/2000/svg">
<path d="M10.5 8.33341C11.384 8.33341 12.2319 7.98222 12.857 7.3571C13.4821 6.73198 13.8333 5.88414 13.8333 5.00008C13.8333 4.11603 13.4821 3.26818 12.857 2.64306C12.2319 2.01794 11.384 1.66675 10.5 1.66675C9.6159 1.66675 8.76806 2.01794 8.14294 2.64306C7.51781 3.26818 7.16663 4.11603 7.16663 5.00008C7.16663 5.88414 7.51781 6.73198 8.14294 7.3571C8.76806 7.98222 9.6159 8.33341 10.5 8.33341ZM5.08329 10.8334C5.63583 10.8334 6.16573 10.6139 6.55643 10.2232C6.94713 9.83252 7.16663 9.30261 7.16663 8.75008C7.16663 8.19755 6.94713 7.66764 6.55643 7.27694C6.16573 6.88624 5.63583 6.66675 5.08329 6.66675C4.53076 6.66675 4.00085 6.88624 3.61015 7.27694C3.21945 7.66764 2.99996 8.19755 2.99996 8.75008C2.99996 9.30261 3.21945 9.83252 3.61015 10.2232C4.00085 10.6139 4.53076 10.8334 5.08329 10.8334ZM18 8.75008C18 9.30261 17.7805 9.83252 17.3898 10.2232C16.9991 10.6139 16.4692 10.8334 15.9166 10.8334C15.3641 10.8334 14.8342 10.6139 14.4435 10.2232C14.0528 9.83252 13.8333 9.30261 13.8333 8.75008C13.8333 8.19755 14.0528 7.66764 14.4435 7.27694C14.8342 6.88624 15.3641 6.66675 15.9166 6.66675C16.4692 6.66675 16.9991 6.88624 17.3898 7.27694C17.7805 7.66764 18 8.19755 18 8.75008ZM10.5 9.16675C11.605 9.16675 12.6648 9.60573 13.4462 10.3871C14.2276 11.1685 14.6666 12.2283 14.6666 13.3334V18.3334H6.33329V13.3334C6.33329 12.2283 6.77228 11.1685 7.55368 10.3871C8.33508 9.60573 9.39489 9.16675 10.5 9.16675ZM4.66663 13.3334C4.66663 12.7559 4.74996 12.1984 4.90663 11.6717L4.76496 11.6834C4.05069 11.7618 3.39051 12.1012 2.91101 12.6363C2.43151 13.1715 2.16644 13.8649 2.16663 14.5834V18.3334H4.66663V13.3334ZM18.8333 18.3334V14.5834C18.8334 13.8404 18.5499 13.1253 18.0407 12.5842C17.5315 12.0431 16.835 11.7168 16.0933 11.6717C16.2491 12.1984 16.3333 12.7559 16.3333 13.3334V18.3334H18.8333Z" fill="black"/>
</svg>
