<svg width="21" height="20" viewBox="0 0 21 20" fill="none" xmlns="http://www.w3.org/2000/svg">
<g id="ri:team-fill">
<path id="Vector" d="M10.3333 8.66667C11.2174 8.66667 12.0652 8.31548 12.6904 7.69036C13.3155 7.06523 13.6667 6.21739 13.6667 5.33333C13.6667 4.44928 13.3155 3.60143 12.6904 2.97631C12.0652 2.35119 11.2174 2 10.3333 2C9.44928 2 8.60143 2.35119 7.97631 2.97631C7.35119 3.60143 7 4.44928 7 5.33333C7 6.21739 7.35119 7.06523 7.97631 7.69036C8.60143 8.31548 9.44928 8.66667 10.3333 8.66667ZM4.91667 11.1667C5.4692 11.1667 5.9991 10.9472 6.3898 10.5565C6.78051 10.1658 7 9.63587 7 9.08333C7 8.5308 6.78051 8.00089 6.3898 7.61019C5.9991 7.21949 5.4692 7 4.91667 7C4.36413 7 3.83423 7.21949 3.44353 7.61019C3.05283 8.00089 2.83333 8.5308 2.83333 9.08333C2.83333 9.63587 3.05283 10.1658 3.44353 10.5565C3.83423 10.9472 4.36413 11.1667 4.91667 11.1667ZM17.8333 9.08333C17.8333 9.63587 17.6138 10.1658 17.2231 10.5565C16.8324 10.9472 16.3025 11.1667 15.75 11.1667C15.1975 11.1667 14.6676 10.9472 14.2769 10.5565C13.8862 10.1658 13.6667 9.63587 13.6667 9.08333C13.6667 8.5308 13.8862 8.00089 14.2769 7.61019C14.6676 7.21949 15.1975 7 15.75 7C16.3025 7 16.8324 7.21949 17.2231 7.61019C17.6138 8.00089 17.8333 8.5308 17.8333 9.08333ZM10.3333 9.5C11.4384 9.5 12.4982 9.93899 13.2796 10.7204C14.061 11.5018 14.5 12.5616 14.5 13.6667V18.6667H6.16667V13.6667C6.16667 12.5616 6.60565 11.5018 7.38705 10.7204C8.16846 9.93899 9.22826 9.5 10.3333 9.5ZM4.5 13.6667C4.5 13.0892 4.58333 12.5317 4.74 12.005L4.59833 12.0167C3.88407 12.0951 3.22389 12.4344 2.74439 12.9696C2.26488 13.5048 1.99981 14.1981 2 14.9167V18.6667H4.5V13.6667ZM18.6667 18.6667V14.9167C18.6668 14.1736 18.3833 13.4586 17.8741 12.9175C17.3649 12.3764 16.6683 12.05 15.9267 12.005C16.0825 12.5317 16.1667 13.0892 16.1667 13.6667V18.6667H18.6667Z" fill="#C8CBD3"/>
</g>
</svg>
