<svg width="164" height="33" viewBox="0 0 164 33" fill="none" xmlns="http://www.w3.org/2000/svg">
<rect width="32" height="32" rx="4" fill="#0D131F"/>
<g clip-path="url(#clip0_8_12)">
<path d="M12.464 10.707C12.2765 10.5195 12.1712 10.2652 12.1712 10C12.1712 9.73485 12.2765 9.48054 12.464 9.29301L15.222 6.53501C15.3241 6.43281 15.4454 6.35174 15.5789 6.29643C15.7124 6.24112 15.8555 6.21265 16 6.21265C16.1445 6.21265 16.2876 6.24112 16.4211 6.29643C16.5546 6.35174 16.6758 6.43281 16.778 6.53501L19.535 9.29301C19.6305 9.38526 19.7067 9.4956 19.7591 9.61761C19.8115 9.73961 19.8391 9.87083 19.8402 10.0036C19.8414 10.1364 19.8161 10.2681 19.7658 10.391C19.7155 10.5139 19.6413 10.6255 19.5474 10.7194C19.4535 10.8133 19.3418 10.8876 19.2189 10.9378C19.096 10.9881 18.9644 11.0134 18.8316 11.0123C18.6988 11.0111 18.5676 10.9835 18.4456 10.9311C18.3236 10.8787 18.2132 10.8025 18.121 10.707L17 9.58601V15H22.414L21.293 13.879C21.1053 13.6915 20.9999 13.4371 20.9998 13.1719C20.9997 12.9066 21.105 12.6522 21.2925 12.4645C21.48 12.2769 21.7344 12.1714 21.9996 12.1713C22.2649 12.1712 22.5193 12.2765 22.707 12.464L25.465 15.222C25.5672 15.3242 25.6483 15.4454 25.7036 15.5789C25.7589 15.7124 25.7874 15.8555 25.7874 16C25.7874 16.1445 25.7589 16.2876 25.7036 16.4211C25.6483 16.5546 25.5672 16.6759 25.465 16.778L22.707 19.536C22.5193 19.7235 22.2649 19.8288 21.9996 19.8287C21.7344 19.8286 21.48 19.7232 21.2925 19.5355C21.105 19.3479 20.9997 19.0934 20.9998 18.8282C20.9999 18.5629 21.1053 18.3085 21.293 18.121L22.414 17H17V22.414L18.121 21.293C18.3096 21.1109 18.5622 21.0101 18.8244 21.0123C19.0866 21.0146 19.3374 21.1198 19.5228 21.3052C19.7082 21.4906 19.8134 21.7414 19.8157 22.0036C19.8179 22.2658 19.7171 22.5184 19.535 22.707L16.778 25.465C16.6758 25.5672 16.5546 25.6483 16.4211 25.7036C16.2876 25.7589 16.1445 25.7874 16 25.7874C15.8555 25.7874 15.7124 25.7589 15.5789 25.7036C15.4454 25.6483 15.3241 25.5672 15.222 25.465L12.464 22.707C12.3711 22.6141 12.2975 22.5038 12.2473 22.3824C12.1971 22.2611 12.1712 22.131 12.1713 21.9997C12.1713 21.8683 12.1972 21.7383 12.2476 21.6169C12.2979 21.4956 12.3716 21.3854 12.4645 21.2925C12.5574 21.1997 12.6677 21.126 12.7891 21.0758C12.9104 21.0256 13.0405 20.9998 13.1718 20.9998C13.3032 20.9999 13.4332 21.0258 13.5546 21.0761C13.6759 21.1264 13.7861 21.2001 13.879 21.293L14.999 22.414V17H9.58699L10.708 18.121C10.8009 18.2139 10.8746 18.3241 10.9249 18.4454C10.9752 18.5668 11.0011 18.6968 11.0012 18.8282C11.0012 18.9595 10.9754 19.0896 10.9252 19.2109C10.875 19.3323 10.8013 19.4426 10.7085 19.5355C10.6156 19.6284 10.5054 19.7021 10.3841 19.7524C10.2627 19.8028 10.1327 19.8287 10.0013 19.8287C9.86999 19.8288 9.73992 19.8029 9.61855 19.7527C9.49719 19.7025 9.3869 19.6289 9.29399 19.536L6.53599 16.778C6.43379 16.6759 6.35272 16.5546 6.2974 16.4211C6.24209 16.2876 6.21362 16.1445 6.21362 16C6.21362 15.8555 6.24209 15.7124 6.2974 15.5789C6.35272 15.4454 6.43379 15.3242 6.53599 15.222L9.29399 12.464C9.48176 12.2766 9.73628 12.1715 10.0015 12.1718C10.2668 12.1721 10.5211 12.2777 10.7085 12.4655C10.8959 12.6533 11.001 12.9078 11.0007 13.1731C11.0004 13.4383 10.8948 13.6926 10.707 13.88L9.58599 15H15V9.58701L13.879 10.707C13.7861 10.8 13.6758 10.8737 13.5544 10.9241C13.433 10.9744 13.3029 11.0003 13.1715 11.0003C13.0401 11.0003 12.9099 10.9744 12.7885 10.9241C12.6672 10.8737 12.5569 10.8 12.464 10.707Z" fill="white"/>
</g>
<path d="M66.044 8.644L61.754 24H58.124L55.242 13.066L52.228 24L48.62 24.022L44.484 8.644H47.784L50.49 20.568L53.614 8.644H57.046L59.994 20.502L62.722 8.644H66.044ZM73.4671 24.198C72.2938 24.198 71.2378 23.9413 70.2991 23.428C69.3604 22.9 68.6198 22.1593 68.0771 21.206C67.5491 20.2527 67.2851 19.1527 67.2851 17.906C67.2851 16.6593 67.5564 15.5593 68.0991 14.606C68.6564 13.6527 69.4118 12.9193 70.3651 12.406C71.3184 11.878 72.3818 11.614 73.5551 11.614C74.7284 11.614 75.7918 11.878 76.7451 12.406C77.6984 12.9193 78.4464 13.6527 78.9891 14.606C79.5464 15.5593 79.8251 16.6593 79.8251 17.906C79.8251 19.1527 79.5391 20.2527 78.9671 21.206C78.4098 22.1593 77.6471 22.9 76.6791 23.428C75.7258 23.9413 74.6551 24.198 73.4671 24.198ZM73.4671 21.514C74.0244 21.514 74.5451 21.382 75.0291 21.118C75.5278 20.8393 75.9238 20.4287 76.2171 19.886C76.5104 19.3433 76.6571 18.6833 76.6571 17.906C76.6571 16.7473 76.3491 15.86 75.7331 15.244C75.1318 14.6133 74.3911 14.298 73.5111 14.298C72.6311 14.298 71.8904 14.6133 71.2891 15.244C70.7024 15.86 70.4091 16.7473 70.4091 17.906C70.4091 19.0647 70.6951 19.9593 71.2671 20.59C71.8538 21.206 72.5871 21.514 73.4671 21.514ZM85.1644 13.704C85.5604 13.0587 86.0737 12.5527 86.7044 12.186C87.3497 11.8193 88.0831 11.636 88.9044 11.636V14.87H88.0904C87.1224 14.87 86.3891 15.0973 85.8904 15.552C85.4064 16.0067 85.1644 16.7987 85.1644 17.928V24H82.0844V11.812H85.1644V13.704ZM98.1949 24L94.0589 18.808V24H90.9789V7.72H94.0589V16.982L98.1509 11.812H102.155L96.7869 17.928L102.199 24H98.1949ZM109.129 24.154C108.058 24.154 107.09 23.9707 106.225 23.604C105.374 23.2373 104.699 22.7093 104.201 22.02C103.702 21.3307 103.445 20.5167 103.431 19.578H106.731C106.775 20.2087 106.995 20.7073 107.391 21.074C107.801 21.4407 108.359 21.624 109.063 21.624C109.781 21.624 110.346 21.4553 110.757 21.118C111.167 20.766 111.373 20.3113 111.373 19.754C111.373 19.2993 111.233 18.9253 110.955 18.632C110.676 18.3387 110.324 18.1113 109.899 17.95C109.488 17.774 108.916 17.5833 108.183 17.378C107.185 17.0847 106.371 16.7987 105.741 16.52C105.125 16.2267 104.589 15.794 104.135 15.222C103.695 14.6353 103.475 13.858 103.475 12.89C103.475 11.9807 103.702 11.1887 104.157 10.514C104.611 9.83933 105.249 9.326 106.071 8.974C106.892 8.60733 107.831 8.424 108.887 8.424C110.471 8.424 111.754 8.81267 112.737 9.59C113.734 10.3527 114.284 11.4233 114.387 12.802H110.999C110.969 12.274 110.742 11.8413 110.317 11.504C109.906 11.152 109.356 10.976 108.667 10.976C108.065 10.976 107.581 11.13 107.215 11.438C106.863 11.746 106.687 12.1933 106.687 12.78C106.687 13.1907 106.819 13.5353 107.083 13.814C107.361 14.078 107.699 14.298 108.095 14.474C108.505 14.6353 109.077 14.826 109.811 15.046C110.808 15.3393 111.622 15.6327 112.253 15.926C112.883 16.2193 113.426 16.6593 113.881 17.246C114.335 17.8327 114.563 18.6027 114.563 19.556C114.563 20.3773 114.35 21.14 113.925 21.844C113.499 22.548 112.876 23.1127 112.055 23.538C111.233 23.9487 110.258 24.154 109.129 24.154ZM116.441 17.906C116.441 16.6447 116.698 15.5447 117.211 14.606C117.724 13.6527 118.436 12.9193 119.345 12.406C120.254 11.878 121.296 11.614 122.469 11.614C123.98 11.614 125.226 11.9953 126.209 12.758C127.206 13.506 127.874 14.562 128.211 15.926H124.889C124.713 15.398 124.412 14.9873 123.987 14.694C123.576 14.386 123.063 14.232 122.447 14.232C121.567 14.232 120.87 14.5547 120.357 15.2C119.844 15.8307 119.587 16.7327 119.587 17.906C119.587 19.0647 119.844 19.9667 120.357 20.612C120.87 21.2427 121.567 21.558 122.447 21.558C123.694 21.558 124.508 21.0007 124.889 19.886H128.211C127.874 21.206 127.206 22.2547 126.209 23.032C125.212 23.8093 123.965 24.198 122.469 24.198C121.296 24.198 120.254 23.9413 119.345 23.428C118.436 22.9 117.724 22.1667 117.211 21.228C116.698 20.2747 116.441 19.1673 116.441 17.906ZM129.675 17.862C129.675 16.63 129.917 15.5373 130.401 14.584C130.9 13.6307 131.567 12.8973 132.403 12.384C133.254 11.8707 134.2 11.614 135.241 11.614C136.151 11.614 136.943 11.7973 137.617 12.164C138.307 12.5307 138.857 12.9927 139.267 13.55V11.812H142.369V24H139.267V22.218C138.871 22.79 138.321 23.2667 137.617 23.648C136.928 24.0147 136.129 24.198 135.219 24.198C134.193 24.198 133.254 23.934 132.403 23.406C131.567 22.878 130.9 22.1373 130.401 21.184C129.917 20.216 129.675 19.1087 129.675 17.862ZM139.267 17.906C139.267 17.158 139.121 16.52 138.827 15.992C138.534 15.4493 138.138 15.0387 137.639 14.76C137.141 14.4667 136.605 14.32 136.033 14.32C135.461 14.32 134.933 14.4593 134.449 14.738C133.965 15.0167 133.569 15.4273 133.261 15.97C132.968 16.498 132.821 17.1287 132.821 17.862C132.821 18.5953 132.968 19.2407 133.261 19.798C133.569 20.3407 133.965 20.7587 134.449 21.052C134.948 21.3453 135.476 21.492 136.033 21.492C136.605 21.492 137.141 21.3527 137.639 21.074C138.138 20.7807 138.534 20.37 138.827 19.842C139.121 19.2993 139.267 18.654 139.267 17.906ZM148.457 7.72V24H145.377V7.72H148.457ZM162.83 17.642C162.83 18.082 162.801 18.478 162.742 18.83H153.832C153.906 19.71 154.214 20.3993 154.756 20.898C155.299 21.3967 155.966 21.646 156.758 21.646C157.902 21.646 158.716 21.1547 159.2 20.172H162.522C162.17 21.3453 161.496 22.3133 160.498 23.076C159.501 23.824 158.276 24.198 156.824 24.198C155.651 24.198 154.595 23.9413 153.656 23.428C152.732 22.9 152.006 22.1593 151.478 21.206C150.965 20.2527 150.708 19.1527 150.708 17.906C150.708 16.6447 150.965 15.5373 151.478 14.584C151.992 13.6307 152.71 12.8973 153.634 12.384C154.558 11.8707 155.622 11.614 156.824 11.614C157.983 11.614 159.017 11.8633 159.926 12.362C160.85 12.8607 161.562 13.572 162.06 14.496C162.574 15.4053 162.83 16.454 162.83 17.642ZM159.64 16.762C159.626 15.97 159.34 15.3393 158.782 14.87C158.225 14.386 157.543 14.144 156.736 14.144C155.974 14.144 155.328 14.3787 154.8 14.848C154.287 15.3027 153.972 15.9407 153.854 16.762H159.64Z" fill="#222222"/>
<defs>
<clipPath id="clip0_8_12">
<rect width="24" height="24" fill="white" transform="translate(4 4)"/>
</clipPath>
</defs>
</svg>
